Patient4_TMGait_0pt7_02_right_23_EMG.mot
version=1
nRows=41
nColumns=33
inDegrees=no
endheader
time	1LAddLong	2LGlutMax	3LGlutMed	4LIliopsoas	5LSemiMemb	6LBicFemLong	7LRecFem	8LVastMed	9LVastLat	10LGasMed	11LTibAnt	12lTibPost	13LPeroneusLong	14LSol	15LExtDigLong	16LFlexDigLong	17RAddLong	18RGlutMax	19RGlutMed	20RIliopsoas	21RSemiMemb	22RBicFemLong	23RRecFem	24RVastMed	25RVastLat	26RGasMed	27RTibAnt	28RTibPost	29RPeroneusLong	30RSol	31RExtDigLong	32RFlexDigLong
25.967	-0.025024	0.52307	0.021515	-0.043488	0.038147	-0.043335	0.2298	0.005951	0.040283	0.046082	-0.1413	0.003815	-0.103	0.14358	-0.29068	-0.029907	-0.14221	0.086823	-0.6398	0.083008	-0.49652	0.21347	0.51071	0.24567	-0.1062	-0.12741	-0.058289	0.30426	-0.25345	0.74219	0.000153	-0.01236
25.968	-0.028076	0.57022	0.029449	-0.022125	0.036469	-0.03952	0.31448	0.003662	0.032043	0.079803	0.1648	0.00412	-0.16541	0.027924	0.13992	-0.020447	-0.11307	0.16312	-0.69839	0.11215	-0.29343	0.224	0.56946	0.061493	-0.13382	0.19516	-0.31296	0.00824	-0.14725	1.4645	0.000458	-0.016785
25.969	-0.02594	0.55252	0.007019	0.013733	0.033112	-0.023041	0.29053	0.001984	0.033875	0.050964	0.25131	0.00946	-0.11307	-0.014343	0.37308	-0.029755	-0.13733	0.31082	-1.0817	0.057526	0.10178	0.22797	0.36591	0.10056	-0.058289	0.20203	-0.33722	0.22034	-0.11978	1.9572	0.001831	-0.022583
25.97	-0.028534	0.51605	-0.016022	0.03479	0.037384	-0.031281	0.25589	0.006104	0.027161	0.044098	0.16769	0.003815	-0.056152	0.002441	0.30197	-0.031281	-0.10101	0.42435	-0.81757	-0.028839	0.27023	0.084839	0.15564	0.040741	-0.049286	0.13886	-0.23102	0.36392	0.11581	2.1153	0.003815	-0.016785
25.971	-0.027008	0.49225	-0.010223	0.032196	0.036926	-0.023041	0.20218	-0.005341	0.029907	0.005493	-0.069427	0.011749	0.012665	0.13321	0.060883	-0.011597	-0.053864	0.5188	-0.058289	-0.032654	0.020447	-0.099487	0.044708	0.023193	-0.09613	0.099335	-0.059814	-0.39108	0.1001	1.8579	-0.001068	-0.009613
25.972	-0.022583	0.45013	-0.02655	-0.014038	0.040131	-0.020447	0.20233	0.001526	0.02533	0.015869	-0.11597	0.006561	0.00061	0.15854	-0.10208	0.002136	0.020599	0.38971	-0.43427	0.024567	-0.2005	-0.37918	0.084686	-0.012207	-0.14465	0.21637	-0.014191	-0.1413	0.014343	0.76141	0.001678	-0.00412
25.973	-0.020294	0.40909	-0.057373	0.014191	0.037842	-0.010223	0.2858	0.006104	0.006256	0.018921	-0.032043	-0.002594	-0.060272	0.081024	-0.20813	-0.00946	0.10635	0.20783	-1.3281	0.088654	-0.04715	-0.60211	0.12192	-0.044556	-0.026855	0.26062	-0.21164	0.022583	0.025024	-0.007629	-0.000458	0.002899
25.974	-0.025635	0.43182	-0.035706	0.041046	0.041199	-0.020447	0.48798	0.004578	-0.000305	0.067902	-0.10178	0.011597	-0.090332	-0.084839	-0.33081	-0.003815	0.18326	0.086365	-1.0172	0.092316	-0.014191	-0.55237	0.14023	-0.010834	0.021667	0.24185	-0.12619	0.30472	0.08255	0.076752	-0.007477	-0.003052
25.975	-0.023041	0.51849	-0.029755	0.009766	0.04303	-0.040741	0.71701	0.005188	-0.006714	0.087433	-0.13199	0.000916	-0.069427	-0.061188	0.057983	-0.007782	0.1236	0.057678	-0.41946	0.083771	-0.48202	-0.17517	0.15106	-0.15121	-0.045929	0.12756	-0.33203	0.30792	0.15823	0.51971	0.004578	-0.00351
25.976	-0.009918	0.5426	-0.065308	0.002747	0.039368	-0.033112	0.76431	0.010529	-0.018158	0.112	-0.16068	0.007477	-0.072632	0.015106	-0.014343	-0.009613	0.071564	-0.11414	-0.3096	0.045471	-0.73318	0.054169	0.13336	-0.25223	-0.034332	0.067749	-0.056763	0.16113	0.10086	0.93048	0.002441	0.00824
25.977	-0.018311	0.58518	-0.063019	0.015106	0.036469	-0.038757	0.62592	0.0177	-0.032806	0.11459	-0.19379	0.000153	-0.091553	0.10162	0.085144	-0.020905	-0.019226	-0.24231	-0.10788	0.003357	-0.29953	-0.19562	0.17502	-0.042114	-0.014191	0.05661	0.56946	0.014954	0.10132	0.80688	0.001678	0.016785
25.978	-0.018616	0.62393	-0.052338	-0.006714	0.049744	-0.042114	0.55527	0.026398	-0.02533	0.070038	-0.067902	0.000153	-0.045013	0.14572	0.3595	-0.001526	-0.18692	-0.35767	0.011749	-0.053558	0.52445	-0.43228	0.19547	0.27725	0.004272	0.058594	0.56793	-0.03479	0.1268	0.010834	0.001068	0.011749
25.979	-0.019684	0.62241	-0.026093	0.014648	0.040283	-0.045471	0.41901	0.033112	-0.050659	0.016937	0.050354	0.009766	-0.022736	0.22186	0.73517	0.002594	-0.21744	-0.42679	-0.3154	-0.12512	0.7988	-0.42877	0.25421	0.48355	-0.040588	0.03418	0.87036	-0.068054	0.12848	-1.2741	0.009613	0.012512
25.98	-0.017853	0.71625	-0.023956	-0.012207	0.044098	-0.031433	0.33524	0.036316	-0.05249	-0.002289	-0.009003	0.003815	-0.050964	0.15869	0.92651	-0.000305	-0.13351	-0.50522	-0.50323	-0.11292	0.60928	0.23209	0.38025	0.41473	-0.070953	-0.086517	0.89233	-0.11749	-0.24628	-1.6653	0.006256	0.005798
25.981	-0.018616	0.77927	-0.010986	-0.016022	0.043488	-0.038147	0.29282	0.036469	-0.057526	0.003204	0.073853	0.003204	-0.098114	0.18982	-0.59799	-0.001373	-0.069733	-0.64316	-0.44846	-0.058746	0.34653	0.12665	0.41901	0.31845	-0.12817	-0.076141	0.78262	-0.14099	-0.21606	-0.83542	0.013123	0.005035
25.982	-0.017548	0.83695	-0.077057	0.010529	0.038147	-0.05722	0.18204	0.049591	-0.056	0.058136	0.31464	0.010529	-0.19455	0.2182	-0.64728	-0.02243	-0.065002	-0.71945	-0.3244	0.009766	0.14435	-0.11002	0.40955	0.27344	-0.12268	-0.11993	0.10956	-0.38086	-0.10819	0.19455	0.000305	0.014343
25.983	-0.009613	0.84061	-0.097351	0.014954	0.039215	-0.050812	-0.030823	0.048218	-0.053711	0.074463	0.20126	-0.001068	-0.19592	0.21271	-0.59952	-0.029449	-0.060577	-0.84518	-0.17624	0.085144	0.095367	-0.12116	0.26672	0.14999	-0.13534	-0.17319	-1.0016	0.16449	-0.09552	0.20783	0.003052	0.000458
25.984	-0.009766	0.83557	-0.057068	0.000305	0.03418	-0.055542	-0.035858	0.039825	-0.043793	0.05127	0.002747	0.003357	-0.13229	0.18646	-0.62836	-0.013428	-0.019531	-0.79712	-0.25757	0.16083	0.06012	-0.32638	-0.064697	0.006866	-0.062714	-0.061493	-0.48599	0.11902	-0.084534	-0.31525	0.002289	-0.005188
25.985	-0.009308	0.87235	-0.065155	-0.019379	0.043335	-0.03952	0.14893	0.042419	-0.042114	0.053406	-0.043182	0.014648	-0.090637	0.003815	-0.65979	0.00473	-0.010834	-0.63156	-0.31509	0.13794	0.029907	-0.088196	-0.25726	-0.12299	0.037994	0.008392	0.13245	-0.039673	0.079041	-0.88516	-0.003357	-0.010834
25.986	-0.012817	0.84213	-0.079041	-0.001984	0.036316	-0.056	0.078583	0.040436	-0.04715	0.019989	0.070038	0.003815	0.033569	-0.061798	-0.19012	0.00824	0.009766	-0.4538	-0.040131	-0.009918	-0.001221	0.46875	-0.12512	-0.026855	0.094604	0.17838	0.16403	-0.08728	0.13123	-0.93857	0.00351	-0.011902
25.987	-0.002441	0.8638	-0.052643	0.032654	0.026093	-0.038452	-0.085754	0.046539	-0.058289	0.013123	0.00824	0.006409	0.014496	0.007019	0.25299	0.001068	0.024109	-0.41168	0.13596	-0.064087	-0.037231	0.47348	0.077209	0.030212	0.11734	0.15076	0.25726	-0.15839	0.15259	0.045471	0.018921	-0.008392
25.988	-0.005035	0.78491	-0.054321	0.068359	0.033112	-0.03006	-0.088959	0.046692	-0.073853	0.06012	-0.084839	-0.009003	-0.11795	0.050049	0.42129	-0.003815	0.005035	-0.49545	0.18463	-0.049286	-0.073547	0.2652	0.032349	0.071259	0.18005	-0.02243	0.28229	-0.65338	0.036011	1.8092	0.009613	0.007019
25.989	0.003052	0.75989	-0.078888	0.071106	0.044556	-0.028687	-0.095367	0.047455	-0.067139	0.071716	-0.17853	0.013428	0.023193	-0.056763	0.35767	-0.005798	-0.00824	-0.44769	0.25299	-0.008392	-0.16403	0.40024	-0.12421	0.11185	0.14084	-0.065002	0.31372	0.086212	0.048523	1.87	0.004272	0.013275
25.99	0.002899	0.7457	-0.11673	0.005341	0.036469	-0.018616	-0.060883	0.042419	-0.046844	0.072632	0.11124	0.006409	-0.019073	-0.1088	0.20935	-0.011597	0.003967	-0.21072	0.23727	-0.020294	-0.19379	0.50354	-0.12543	0.066986	0.085144	-0.1944	0.2858	0.25604	0.27649	1.6502	0.002289	0.016174
25.991	0.010681	0.67307	-0.1532	-0.055695	0.042572	-0.017395	-0.085297	0.023346	0.00061	0.054321	0.080109	-0.002594	-0.019379	-0.097656	0.14175	-0.013733	0.001526	-0.16983	-0.036621	0.014648	-0.1355	0.034027	-0.26932	0.11902	0.10132	0.013733	0.27832	0.22598	0.25681	1.0951	0.00473	0.011597
25.992	0.009766	0.6221	-0.15228	-0.11871	0.044556	-0.016937	-0.16266	0.03067	0.029144	0.071259	-0.070496	0.000763	-0.007629	-0.058441	-0.081787	-0.009613	-0.004425	-0.32791	-0.26154	-0.010529	0.11871	0.12146	-0.21988	0.11536	0.073395	0.16617	0.29877	0.31967	0.22446	0.35584	0.003815	0.010376
25.993	0.009308	0.61478	-0.027924	-0.087128	0.03952	-0.006104	-0.21881	0.023499	0.069733	0.072021	-0.020447	0.001984	-0.049286	-0.004272	0.017242	-0.007477	-0.006866	-0.45013	-0.38223	-0.050507	0.18997	-0.049744	-0.037384	0.07309	0.061798	0.13962	0.27084	0.082855	0.24277	-0.50293	0.004425	0.007019
25.994	0.014648	0.60608	0.015869	-0.007935	0.039215	-0.028839	-0.112	0.011597	0.079041	0.075531	0.25085	0.004578	-0.033722	0.083008	-0.21469	0.003204	0.005646	-0.44617	-0.13641	-0.14511	0.14633	0.048065	0.05127	0.049438	0.022278	0.011597	0.2594	-0.13596	0.10086	-0.55359	-0.000153	0.000763
25.995	0.009155	0.59677	-0.036316	0.049896	0.048828	-0.007324	0.050964	0.003967	0.10498	0.074615	0.33035	0.00473	-0.11231	0.12573	0.033264	-0.001984	0.029755	-0.38849	0.025482	-0.233	0.10056	0.23315	0.18692	0.007629	-0.005646	-0.041504	-0.42526	-0.054626	0.21652	-0.48096	0.006104	0.001984
25.996	0.016479	0.60333	-0.093384	0.11169	0.043793	-0.000916	0.006866	-0.011139	0.13367	0.051575	-0.084839	0.002441	-0.11444	0.11688	0.19379	-0.004883	0.043945	-0.27527	-0.10208	-0.22736	0.097351	0.23666	0.14465	-0.001526	-0.055237	-0.15427	-0.45548	-0.038605	0.23758	0.17487	0.006256	0.004425
25.997	0.01358	0.60364	-0.1033	0.14572	0.039368	-0.011749	-0.082397	-0.017548	0.14465	0.011139	-0.1767	-0.014191	-0.0177	0.1062	0.13931	-0.009613	0.05722	-0.23789	-0.028992	-0.16098	0.086517	-0.18967	0.18372	-0.12131	-0.068817	-0.16342	-0.27435	-0.063477	0.020599	0.31632	0.007019	-0.003967
25.998	0.022736	0.59143	-0.098267	0.10925	0.04425	-0.038147	-0.16617	-0.026855	0.13901	0.046692	-0.15259	0.030365	-0.000153	0.031738	0.24796	-0.011749	0.034943	-0.080872	0.24216	-0.03006	0.07782	-0.45364	0.15167	-0.1445	-0.089874	-0.13779	0.19486	-0.099487	0.020142	0.30426	0.005035	-0.000305
25.999	0.026703	0.59326	-0.096741	0.009918	0.029602	-0.007629	-0.22125	-0.045166	0.14175	0.050049	0.040894	-0.005951	-0.025482	0.020294	-0.060577	-0.017853	0.006714	-0.022278	0.40451	0.16495	0.10162	-0.44968	-0.25574	-0.018921	0.005646	-0.093231	0.59967	-0.014343	-0.10117	0.12772	0.005035	-0.000916
26	0.021973	0.62042	-0.049438	-0.042267	0.040588	-0.018921	-0.27847	-0.053711	0.12955	0.031433	0.052032	0.00824	-0.049286	0.0737	-0.09552	-0.008698	-0.02182	0.070496	0.36514	0.2388	0.29343	-0.39124	-0.59509	0.1152	0.12726	-0.22064	0.57175	-0.35965	-0.30319	-0.26535	0.003815	0.001373
26.001	0.023651	0.62561	-0.016327	-0.054932	0.05127	-0.021362	-0.19898	-0.055084	0.12268	0.050964	0.00824	0.01709	-0.024719	-0.006561	-0.076752	-0.008545	-0.039978	0.065308	0.27679	0.13382	0.15366	-0.29053	-0.41107	0.27176	0.25589	-0.12955	-1.0211	-0.52399	-0.40131	-0.82703	0.003967	-0.009003
26.002	0.022888	0.616	-0.061951	-0.019531	0.036926	-0.028229	-0.087738	-0.061493	0.13947	0.070953	-0.008392	0.007477	-0.081177	-0.022278	-0.002289	-0.016937	0.008087	0.10315	0.32883	0.15366	0.061188	-0.39612	0.12817	0.12512	0.050812	0.022736	-0.9198	0.67047	-0.39337	-1.2215	0.002899	-0.016937
26.003	0.018158	0.58243	-0.08255	-0.009003	0.03952	-0.030975	0.029602	-0.063477	0.15381	0.058746	-0.047302	0.010529	-0.056305	0.013428	-0.085144	0.000305	0.013885	0.15167	0.55283	0.16617	0.053406	-0.11688	0.27878	0.15442	-0.035858	0.13367	-0.41382	0.40283	-0.29404	-1.496	0.003204	-0.019531
26.004	0.018463	0.50888	-0.063019	0.001221	0.04364	-0.017395	0.10376	-0.052643	0.13794	0.040588	0.068359	0.014801	-0.062408	0.010529	-0.048828	0.000763	0.032349	0.19836	0.61493	0.10986	-0.010223	0.54291	0.4042	0.099182	-0.097198	0.050201	-0.30777	0.096893	0.077667	-1.398	0.004883	-0.016785
26.005	0.014496	0.41916	-0.035858	-0.016174	0.038147	-0.023651	0.12146	-0.046234	0.12466	0.031433	0.11932	0.007477	-0.071411	0.087585	-0.020142	0.000458	0.063629	0.14099	0.36682	0.063934	0.027008	0.49561	0.52322	-0.067596	-0.15243	0.03418	-0.59677	-0.3183	-0.21011	-0.5719	-0.000763	-0.000916
26.006	0.004883	0.3093	-0.060577	-0.019226	0.038757	-0.028839	0.21622	-0.044403	0.10742	0.035095	0.010529	0.009308	-0.081329	0.09201	0.013275	-0.001678	0.071106	0.11124	0.24262	-0.009003	0.002899	0.14755	0.5278	-0.25665	-0.25253	0.11185	-0.81512	-0.37216	-0.24902	-0.14755	0.00061	0.000153
26.007	0.007935	0.18265	-0.11307	-0.015259	0.03067	-0.03479	0.26688	-0.14175	0.052032	0.030518	-0.12146	0.012817	-0.044098	0.071411	0.33341	-0.000153	0.052338	0.04425	0.15549	-0.036469	-0.29388	-0.18448	0.24628	-0.34943	-0.30823	0.17975	-0.50262	0.22919	0.23392	-0.44495	0.000916	0.005035
